inDegrees=no
num_controls=7
num_derivatives=13
num_iterations=96
num_multipliers=7
num_parameters=0
num_slacks=7
num_states=26
objective=5.495478
objective_accelerations=0.796144
objective_balance=0.020074
objective_effort=0.186913
objective_height=4.374525
objective_ligament=0.117822
solver_duration=1142.459245
status=Solve_Succeeded
success=true
DataType=double
version=3
OpenSimVersion=4.4-2022-07-23-0e9fedc
endheader
time	/jointset/ground_pelvis/pelvis_tilt/value	/jointset/ground_pelvis/pelvis_tx/value	/jointset/ground_pelvis/pelvis_ty/value	/jointset/hip_l/hip_flexion_l/value	/jointset/hip_l/hip_adduction_l/value	/jointset/hip_l/hip_rotation_l/value	/jointset/back/lumbar_extension/value	/jointset/patellofemoral_l/patellar_flexion_l/value	/jointset/knee_l/knee_flexion_l/value	/jointset/knee_l/knee_adduction_l/value	/jointset/knee_l/knee_rotation_l/value	/jointset/ankle_l/ankle_angle_l/value	/jointset/subtalar_l/subtalar_angle_l/value	/jointset/ground_pelvis/pelvis_tilt/speed	/jointset/ground_pelvis/pelvis_tx/speed	/jointset/ground_pelvis/pelvis_ty/speed	/jointset/hip_l/hip_flexion_l/speed	/jointset/hip_l/hip_adduction_l/speed	/jointset/hip_l/hip_rotation_l/speed	/jointset/back/lumbar_extension/speed	/jointset/patellofemoral_l/patellar_flexion_l/speed	/jointset/knee_l/knee_flexion_l/speed	/jointset/knee_l/knee_adduction_l/speed	/jointset/knee_l/knee_rotation_l/speed	/jointset/ankle_l/ankle_angle_l/speed	/jointset/subtalar_l/subtalar_angle_l/speed	/forceset/tau_hip_flexion_l	/forceset/tau_hip_adduction_l	/forceset/tau_hip_rotation_l	/forceset/tau_knee_flexion_l	/forceset/tau_ankle_angle_l	/forceset/tau_subtalar_angle_l	/forceset/tau_lumbar_extension	lambda_cid13_p0	lambda_cid13_p1	lambda_cid13_p2	lambda_cid13_p3	lambda_cid13_p4	lambda_cid13_p5	lambda_cid14_p0	/jointset/ground_pelvis/pelvis_tilt/accel	/jointset/ground_pelvis/pelvis_tx/accel	/jointset/ground_pelvis/pelvis_ty/accel	/jointset/hip_l/hip_flexion_l/accel	/jointset/hip_l/hip_adduction_l/accel	/jointset/hip_l/hip_rotation_l/accel	/jointset/back/lumbar_extension/accel	/jointset/patellofemoral_l/patellar_flexion_l/accel	/jointset/knee_l/knee_flexion_l/accel	/jointset/knee_l/knee_adduction_l/accel	/jointset/knee_l/knee_rotation_l/accel	/jointset/ankle_l/ankle_angle_l/accel	/jointset/subtalar_l/subtalar_angle_l/accel	gamma_cid13_p0	gamma_cid13_p1	gamma_cid13_p2	gamma_cid13_p3	gamma_cid13_p4	gamma_cid13_p5	gamma_cid14_p0
0	0.05205779920947534	0.1059251344383258	0.9042763202139062	0.1266917050730164	-0.3581165911598256	-0.2358132582598633	-0.2144974744115991	0.2051547269256468	0.2051547269256735	-0.1497236422042356	-0.1648718593888013	0.09024399430361882	0.09210333154018631	0	0	0	0	0	0	0	0	0	0	0	0	0	0.1182231794191027	-0.0736521178017332	-0.009448668132533495	-0.2497024695818334	0.1819206000723239	-0.06181440164373242	-0.05097218637215888	28.8662531773431	23.07637539687006	-5.427397831915664	-18.76176350211786	-438.0301748530632	-67.58825135274151	-26.22372617835759	-3.609655313199542	-1.172194096233846	-0.9132239507949643	12.15451888535076	-0.1952061673843608	3.367234889261819	-3.712274374089876	11.1386364866787	11.13863648668865	2.467710823285192	-0.7947140992487953	3.622662294525365	0.873975384270506	3.540100815449875e-09	5.739892972154845e-07	-1.47188818317415e-07	4.821261210565478e-08	4.536517423028293e-08	2.8075798920996e-07	7.461435246262943e-08
0.01	0.05188533991538786	0.1058671858589295	0.9042320097265395	0.1272825644467368	-0.3581250995053747	-0.2356390372064136	-0.2146875154342213	0.2056981305472794	0.205698130546843	-0.149601787025895	-0.1649006241647141	0.09042092957955294	0.09214701244777398	-0.03438158695695061	-0.01155205811733242	-0.008837451269178623	0.1176853216279588	-0.001691056906261628	0.03471266856428218	-0.03772825302879255	0.108145487481095	0.1081454874811337	0.02423732579165931	-0.005674211648024853	0.0351799630880935	0.008686446062148349	0.1152260585347063	-0.08020446707626408	-0.00879736807607996	-0.2457801520378486	0.1740864835159672	-0.05361340125783902	-0.04859132355049382	26.81386823537252	19.6080168979019	-4.570584684525696	-17.61791025000843	-438.768686214207	-74.48031398111111	-26.2236971828087	-3.335871104783823	-1.141053361636213	-0.8652997114110402	11.50255413718112	-0.1545262203266902	3.503591963201203	-3.761108044709635	10.57220443074876	10.57220443074682	2.381766746159661	-0.4420007267816581	3.434614924513884	0.8584462495699063	-8.884936067316057e-09	8.257336887035706e-07	-1.561545997842982e-07	8.721303115888338e-08	-1.513200979493555e-07	3.257619469755163e-07	1.115617718214021e-07
0.02	0.05137237260817324	0.1056948483599278	0.9041000659271988	0.1290356801041089	-0.358150212573794	-0.2351216276429805	-0.215246440442591	0.2073069289539808	0.2073069289539879	-0.1492415539329218	-0.1649837762631135	0.09094345480799637	0.09227605122246164	-0.06810160262802759	-0.02287778392106166	-0.0175266623948661	0.2324512566821401	-0.003320944535945813	0.068637702056219	-0.07377679715509124	0.2130789570391937	0.2130789570392063	0.04767558314555435	-0.01087746446411781	0.069117990518724	0.01707157341964146	0.1122289376546566	-0.08675681634978881	-0.008146068018536927	-0.2418578344907239	0.1662523669611095	-0.04541240087040309	-0.04621046072682395	24.81261890581654	16.14324978911453	-3.728675550139924	-16.52069827170094	-438.5924324429789	-81.17058328870021	-26.22329339212594	-3.477341056025438	-1.126927633512847	-0.8835759220967592	11.57064157059536	-0.1829723120688138	3.209707874792689	-3.376332593591591	10.49623290207935	10.49623290207632	2.307897135732504	-0.7005223328622846	3.374275163033153	0.8137116433396465	-2.130997295008199e-08	1.077478080191656e-06	-1.651203812511814e-07	1.26213450212112e-07	-3.48005370128994e-07	3.707659047410726e-07	1.485091911801748e-07
0.03	0.05052537295570662	0.1054103663441246	0.9038816361342346	0.1319225810681112	-0.358191349974927	-0.2342702522473972	-0.2161571593776209	0.2099500886158193	0.2099500886161752	-0.1486509062692133	-0.1651180321573624	0.09179950420879131	0.09248755714710584	-0.1011502416262677	-0.03398095068287602	-0.02615950257278555	0.3444236480031966	-0.004901720910072413	0.1015141257605825	-0.1081117725553858	0.3150557838149862	0.3150557838150005	0.07029201387251331	-0.01588007636136647	0.1019013578121795	0.02518126172934259	0.1085611346810124	-0.08232837309657982	-0.007414283847394949	-0.237605482143746	0.1608525139241495	-0.04674203902312001	-0.04344227351785108	23.0056051217509	16.88950628931724	-3.679053289913108	-15.3341162690908	-438.401785547863	-78.8364582932082	-26.2220520351603	-3.196405122030662	-1.09633551288766	-0.8532394177040301	10.93474521075883	-0.1450414993090192	3.308180870091123	-3.423797420219521	9.97379898335732	9.973798983359639	2.214389929259148	-0.3861371404703191	3.201818656710729	0.80219503836442	-2.906023601610281e-08	1.169897810514127e-06	-1.685526116084087e-07	1.455934536303764e-07	-4.792072213763383e-07	3.816780228224817e-07	1.645789649163705e-07
0.04	0.04935233095326352	0.1050159877976304	0.9035768576690824	0.1359140474047942	-0.3582481773795973	-0.2330937983642248	-0.2174035715480381	0.2135980948292565	0.2135980948292637	-0.1478389195198846	-0.1652995154747026	0.09297767751141249	0.09277867947756462	-0.1333100726368419	-0.04485709005926702	-0.03479639683251527	0.4533643312402801	-0.006458945253046548	0.1336533995382961	-0.1409154442345989	0.4140482673119009	0.414048267311932	0.09194340012265574	-0.02032294915116069	0.1335427708740007	0.03299485458217272	0.1048933317048198	-0.07789992984404712	-0.006682499678173259	-0.2333531297982502	0.1554526608863874	-0.04807167717679498	-0.04067408631011491	21.24490151772819	17.64186156155923	-3.646633221548866	-14.18615808793512	-437.3727840303091	-76.30763147080391	-26.21908467091587	-3.299579458492888	-1.081522156427869	-0.8843867384588359	10.96429995380086	-0.1782619058383493	3.062277889462666	-3.070071849375853	9.899364246303676	9.899364246303691	2.114888240369337	-0.5885745113712967	3.145884316706594	0.7544925519655986	-3.671411199311857e-08	1.259032496276482e-06	-1.718707481283235e-07	1.645689123963736e-07	-6.090588989962126e-07	3.918872163743208e-07	1.80218271732513e-07
0.05	0.04786139990058413	0.1045139291990599	0.9031854018031094	0.1409809578106419	-0.3583204033027478	-0.2316015312761819	-0.2189696711064948	0.2182218342602194	0.2182218342602331	-0.1468150778592299	-0.1655244886468085	0.09446661599929175	0.09314658453929003	-0.1647383685192652	-0.05551985100930188	-0.04351352548959362	0.5595222292228652	-0.0079683375967052	0.1646533672827745	-0.1720455712255214	0.5101876239318489	0.5101876239318455	0.1126655402367869	-0.02457334785512937	0.1640393365091488	0.04054975060103746	0.1008189093603951	-0.07582140044556447	-0.005795640520354037	-0.2291095468371271	0.1490068633422937	-0.04676357047253437	-0.03767696026910582	19.29705999387052	17.25164768576075	-3.398058445288063	-12.96275522562065	-436.5717921194917	-76.11909562691375	-26.21340230234407	-3.043775871497809	-1.053403199648214	-0.8683111596151329	10.36720911428206	-0.1347486655409166	3.096924716863267	-3.095648690344445	9.394385956290815	9.394385956284848	2.02716215291353	-0.328578694047041	2.970740723983774	0.7503499682829465	-3.755379890003036e-08	1.235904993954224e-06	-2.100685614667337e-07	1.699244416913338e-07	-6.711235513497032e-07	4.135095404634002e-07	1.849140008906197e-07
0.06	0.04606032164544299	0.1039062929639179	0.9027061876045119	0.1470945820750915	-0.3584072173027717	-0.2298036508107364	-0.2208393050481321	0.223791600174731	0.2237916001747412	-0.1455887577463785	-0.1657890270346702	0.09625435975092492	0.09358891092949273	-0.1953395131371294	-0.06597261737357436	-0.05234806335750859	0.6627071029571674	-0.009376560616861689	0.1947760750242091	-0.2016223208722701	0.603253564009828	0.6032535640097734	0.1324390905900699	-0.02823599232456921	0.1933038236269071	0.04787912027734326	0.096744487016102	-0.07374287104689584	-0.004908781363146847	-0.2248659638756356	0.142561065798387	-0.04545546376800707	-0.03467983422818905	17.39099925309115	16.86556226119498	-3.163214687553462	-11.77139661134994	-435.0207392309617	-75.75544765451298	-26.20367172042872	-3.134149205581647	-1.039523239275145	-0.9078685806261771	10.36969510414435	-0.1580280411378996	2.886825888853886	-2.759396380541505	9.284680937909792	9.284680937906437	1.92517028819981	-0.4710236644653886	2.899468613228884	0.7093872834539184	-3.810657258293776e-08	1.208050662659981e-06	-2.497349927764489e-07	1.747065002717241e-07	-7.303340131656617e-07	4.356124174172055e-07	1.891489478315458e-07
0.07000000000000001	0.04395669710110545	0.1031952371245269	0.9021377791900936	0.1542264535996352	-0.3585075888583504	-0.2277105280774009	-0.2229963688555164	0.2302778530806025	0.2302778530807398	-0.1441691801406386	-0.1660890455999082	0.09832904418169763	0.094103606987147	-0.2252435821851096	-0.07619468485904263	-0.06136766112022594	0.763165246330837	-0.01067706150001527	0.2237002238899742	-0.2295474689525543	0.6934970611062489	0.6934970611061892	0.1513106615264316	-0.03166194441956263	0.2214419527857495	0.05503308070385963	0.09260723170004521	-0.07094042544290995	-0.004013458635463773	-0.2212882500561562	0.1371145595069527	-0.0446663757922631	-0.03166833686322315	15.76473510246903	16.69796751431642	-3.011258958163163	-10.83450112356192	-433.691502606221	-74.92626231175588	-26.18851390591659	-2.897245550030281	-1.006933656498611	-0.9042583977661544	9.80858612432373	-0.1130879184161024	2.873049116643554	-2.772628274944758	8.819152803573896	8.819152803575141	1.843460125059437	-0.262582050870398	2.742352938147289	0.7141903337939498	-3.387369557259742e-08	1.041549586593771e-06	-2.985025323961103e-07	1.628126198282016e-07	-7.351028215920074e-07	4.357953590500413e-07	1.772776481705115e-07
